<svg xmlns="http://www.w3.org/2000/svg" xmlns:xlink="http://www.w3.org/1999/xlink" width="1080" zoomAndPan="magnify" viewBox="0 0 810 1012.49997" height="1350" preserveAspectRatio="xMidYMid meet" version="1.2"><defs><clipPath id="388b05ab1a"><path d="M 0.199219 0 L 809.800781 0 L 809.800781 1012 L 0.199219 1012 Z M 0.199219 0 "/></clipPath><clipPath id="ed9cebc943"><path d="M 483 60.691406 L 764.386719 60.691406 L 764.386719 282 L 483 282 Z M 483 60.691406 "/></clipPath><clipPath id="e47547d642"><path d="M 440.542969 168 L 657 168 L 657 384.53125 L 440.542969 384.53125 Z M 440.542969 168 "/></clipPath><clipPath id="3729ee947c"><path d="M 117 254 L 373.40625 254 L 373.40625 404 L 117 404 Z M 117 254 "/></clipPath><clipPath id="3767c207ea"><path d="M 117 235 L 373.40625 235 L 373.40625 384 L 117 384 Z M 117 235 "/></clipPath><clipPath id="47cac59d85"><path d="M 238 40.421875 L 245 40.421875 L 245 47 L 238 47 Z M 238 40.421875 "/></clipPath></defs><g id="56d8c8fa2a"><g clip-rule="nonzero" clip-path="url(#388b05ab1a)"><path style=" stroke:none;fill-rule:nonzero;fill:#ffffff;fill-opacity:1;" d="M 0.199219 0 L 809.800781 0 L 809.800781 1012 L 0.199219 1012 Z M 0.199219 0 "/><path style=" stroke:none;fill-rule:nonzero;fill:#fffbde;fill-opacity:1;" d="M 0.199219 0 L 809.800781 0 L 809.800781 1012 L 0.199219 1012 Z M 0.199219 0 "/></g><path style=" stroke:none;fill-rule:nonzero;fill:#8dd5d8;fill-opacity:1;" d="M 737.398438 276.585938 L 510.710938 276.585938 C 498.777344 276.585938 489.121094 266.929688 489.121094 254.996094 L 489.121094 87.679688 C 489.121094 75.746094 498.777344 66.089844 510.710938 66.089844 L 737.398438 66.089844 C 749.332031 66.089844 758.988281 75.746094 758.988281 87.679688 L 758.988281 254.996094 C 758.988281 266.929688 749.332031 276.585938 737.398438 276.585938 "/><path style=" stroke:none;fill-rule:nonzero;fill:#69b7d4;fill-opacity:1;" d="M 559.285156 93.074219 L 548.492188 93.074219 L 548.492188 82.28125 L 559.285156 82.28125 L 559.285156 93.074219 "/><path style=" stroke:none;fill-rule:nonzero;fill:#69b7d4;fill-opacity:1;" d="M 516.109375 93.074219 L 505.3125 93.074219 L 505.3125 82.28125 L 516.109375 82.28125 L 516.109375 93.074219 "/><path style=" stroke:none;fill-rule:nonzero;fill:#69b7d4;fill-opacity:1;" d="M 537.695312 93.074219 L 526.902344 93.074219 L 526.902344 82.28125 L 537.695312 82.28125 L 537.695312 93.074219 "/><path style=" stroke:none;fill-rule:nonzero;fill:#69b7d4;fill-opacity:1;" d="M 742.796875 114.664062 L 505.3125 114.664062 L 505.3125 103.871094 L 742.796875 103.871094 L 742.796875 114.664062 "/><path style=" stroke:none;fill-rule:nonzero;fill:#69b7d4;fill-opacity:1;" d="M 559.285156 136.253906 L 505.3125 136.253906 L 505.3125 125.460938 L 559.285156 125.460938 L 559.285156 136.253906 "/><path style=" stroke:none;fill-rule:nonzero;fill:#69b7d4;fill-opacity:1;" d="M 537.695312 157.84375 L 505.3125 157.84375 L 505.3125 147.050781 L 537.695312 147.050781 L 537.695312 157.84375 "/><path style=" stroke:none;fill-rule:nonzero;fill:#e52a88;fill-opacity:1;" d="M 570.082031 249.597656 L 591.671875 249.597656 L 591.671875 152.445312 L 570.082031 152.445312 L 570.082031 249.597656 "/><path style=" stroke:none;fill-rule:nonzero;fill:#e52a88;fill-opacity:1;" d="M 613.257812 249.597656 L 634.847656 249.597656 L 634.847656 136.253906 L 613.257812 136.253906 L 613.257812 249.597656 "/><path style=" stroke:none;fill-rule:nonzero;fill:#e52a88;fill-opacity:1;" d="M 656.4375 249.597656 L 678.027344 249.597656 L 678.027344 174.035156 L 656.4375 174.035156 L 656.4375 249.597656 "/><path style=" stroke:none;fill-rule:nonzero;fill:#e52a88;fill-opacity:1;" d="M 699.617188 136.253906 L 699.617188 249.597656 L 721.207031 249.597656 L 721.207031 136.253906 L 699.617188 136.253906 "/><path style=" stroke:none;fill-rule:nonzero;fill:#69b7d4;fill-opacity:1;" d="M 742.796875 254.996094 L 505.3125 254.996094 L 505.3125 244.199219 L 742.796875 244.199219 L 742.796875 254.996094 "/><path style=" stroke:none;fill-rule:nonzero;fill:#f89d1f;fill-opacity:1;" d="M 620.996094 349.089844 C 639.550781 330.539062 651.039062 304.898438 651.039062 276.585938 L 548.492188 276.585938 L 620.996094 349.089844 "/><path style=" stroke:none;fill-rule:nonzero;fill:#e52a88;fill-opacity:1;" d="M 548.492188 174.035156 C 491.863281 174.035156 445.941406 219.953125 445.941406 276.585938 C 445.941406 333.214844 491.863281 379.132812 548.492188 379.132812 C 576.804688 379.132812 602.445312 367.664062 620.996094 349.089844 L 548.492188 276.585938 L 548.492188 174.035156 "/><path style=" stroke:none;fill-rule:nonzero;fill:#5498d7;fill-opacity:1;" d="M 548.492188 174.035156 L 548.492188 276.585938 L 651.039062 276.585938 C 651.039062 219.953125 605.121094 174.035156 548.492188 174.035156 "/><g clip-rule="nonzero" clip-path="url(#ed9cebc943)"><path style=" stroke:none;fill-rule:nonzero;fill:#100f0d;fill-opacity:1;" d="M 737.398438 60.691406 L 510.710938 60.691406 C 495.824219 60.691406 483.722656 72.792969 483.722656 87.679688 L 483.722656 174.035156 L 494.519531 174.035156 L 494.519531 87.679688 C 494.519531 78.738281 501.769531 71.484375 510.710938 71.484375 L 737.398438 71.484375 C 746.335938 71.484375 753.589844 78.738281 753.589844 87.679688 L 753.589844 254.996094 C 753.589844 263.933594 746.335938 271.1875 737.398438 271.1875 L 667.234375 271.1875 L 667.234375 281.980469 L 737.398438 281.980469 C 752.28125 281.980469 764.386719 269.878906 764.386719 254.996094 L 764.386719 87.679688 C 764.386719 72.792969 752.28125 60.691406 737.398438 60.691406 "/></g><path style=" stroke:none;fill-rule:nonzero;fill:#100f0d;fill-opacity:1;" d="M 505.3125 82.28125 L 505.3125 93.074219 L 516.109375 93.074219 L 516.109375 82.28125 L 505.3125 82.28125 "/><path style=" stroke:none;fill-rule:nonzero;fill:#100f0d;fill-opacity:1;" d="M 526.902344 82.28125 L 526.902344 93.074219 L 537.695312 93.074219 L 537.695312 82.28125 L 526.902344 82.28125 "/><path style=" stroke:none;fill-rule:nonzero;fill:#100f0d;fill-opacity:1;" d="M 548.492188 82.28125 L 548.492188 93.074219 L 559.285156 93.074219 L 559.285156 82.28125 L 548.492188 82.28125 "/><path style=" stroke:none;fill-rule:nonzero;fill:#100f0d;fill-opacity:1;" d="M 505.3125 114.664062 L 742.796875 114.664062 L 742.796875 103.871094 L 505.3125 103.871094 L 505.3125 114.664062 "/><path style=" stroke:none;fill-rule:nonzero;fill:#100f0d;fill-opacity:1;" d="M 505.3125 136.253906 L 559.285156 136.253906 L 559.285156 125.460938 L 505.3125 125.460938 L 505.3125 136.253906 "/><path style=" stroke:none;fill-rule:nonzero;fill:#100f0d;fill-opacity:1;" d="M 505.3125 157.84375 L 537.695312 157.84375 L 537.695312 147.050781 L 505.3125 147.050781 L 505.3125 157.84375 "/><path style=" stroke:none;fill-rule:nonzero;fill:#100f0d;fill-opacity:1;" d="M 597.066406 163.242188 L 597.066406 152.445312 C 597.066406 149.472656 594.644531 147.050781 591.671875 147.050781 L 570.082031 147.050781 C 567.109375 147.050781 564.683594 149.472656 564.683594 152.445312 L 564.683594 157.84375 L 586.273438 157.84375 L 586.273438 163.242188 L 597.066406 163.242188 "/><path style=" stroke:none;fill-rule:nonzero;fill:#100f0d;fill-opacity:1;" d="M 640.246094 190.226562 L 640.246094 136.253906 C 640.246094 133.28125 637.820312 130.855469 634.847656 130.855469 L 613.257812 130.855469 C 610.285156 130.855469 607.863281 133.28125 607.863281 136.253906 L 607.863281 174.035156 L 618.65625 174.035156 L 618.65625 141.652344 L 629.453125 141.652344 L 629.453125 190.226562 L 640.246094 190.226562 "/><path style=" stroke:none;fill-rule:nonzero;fill:#100f0d;fill-opacity:1;" d="M 705.015625 141.652344 L 715.808594 141.652344 L 715.808594 244.199219 L 705.015625 244.199219 Z M 672.628906 244.199219 L 667.234375 244.199219 L 667.234375 254.996094 L 742.796875 254.996094 L 742.796875 244.199219 L 726.601562 244.199219 L 726.601562 136.253906 C 726.601562 133.28125 724.179688 130.855469 721.207031 130.855469 L 699.617188 130.855469 C 696.644531 130.855469 694.21875 133.28125 694.21875 136.253906 L 694.21875 244.199219 L 683.425781 244.199219 L 683.425781 174.035156 C 683.425781 171.0625 681 168.636719 678.027344 168.636719 L 656.4375 168.636719 C 653.464844 168.636719 651.039062 171.0625 651.039062 174.035156 L 651.039062 222.613281 L 661.835938 222.613281 L 661.835938 179.433594 L 672.628906 179.433594 L 672.628906 244.199219 "/><g clip-rule="nonzero" clip-path="url(#e47547d642)"><path style=" stroke:none;fill-rule:nonzero;fill:#100f0d;fill-opacity:1;" d="M 553.890625 271.1875 L 553.890625 179.582031 C 603.183594 182.300781 642.777344 221.894531 645.496094 271.1875 Z M 620.890625 341.351562 L 561.519531 281.980469 L 645.496094 281.980469 C 644.292969 304.121094 635.691406 324.867188 620.890625 341.351562 Z M 548.492188 373.738281 C 494.917969 373.738281 451.339844 330.15625 451.339844 276.585938 C 451.339844 224.824219 492.03125 182.382812 543.09375 179.582031 L 543.09375 276.585938 C 543.09375 276.710938 543.15625 276.796875 543.15625 276.921875 C 543.199219 277.40625 543.285156 277.851562 543.429688 278.3125 C 543.472656 278.441406 543.472656 278.546875 543.515625 278.671875 C 543.535156 278.734375 543.601562 278.777344 543.621094 278.839844 C 543.894531 279.410156 544.210938 279.917969 544.65625 280.378906 C 544.65625 280.378906 544.675781 280.402344 544.675781 280.402344 L 613.257812 348.984375 C 595.445312 364.988281 572.632812 373.738281 548.492188 373.738281 Z M 548.492188 168.636719 C 488.972656 168.636719 440.542969 217.066406 440.542969 276.585938 C 440.542969 336.101562 488.972656 384.53125 548.492188 384.53125 C 577.332031 384.53125 604.425781 373.292969 624.8125 352.90625 C 645.199219 332.519531 656.4375 305.425781 656.4375 276.585938 C 656.4375 217.066406 608.007812 168.636719 548.492188 168.636719 "/></g><path style=" stroke:none;fill-rule:evenodd;fill:#ff5622;fill-opacity:1;" d="M 253.960938 256.691406 C 299.910156 214.296875 280.136719 170.585938 280.136719 170.585938 C 219.96875 151.921875 154.816406 158.277344 99.386719 188.21875 C 173.933594 231.265625 222.558594 260.949219 222.558594 260.949219 C 222.558594 248.542969 253.960938 256.691406 253.960938 256.691406 Z M 253.960938 256.691406 "/><path style=" stroke:none;fill-rule:evenodd;fill:#fe3501;fill-opacity:1;" d="M 218.375 255.179688 L 99.386719 188.21875 L 99.386719 207.609375 L 219.585938 279.417969 Z M 218.375 255.179688 "/><path style=" stroke:none;fill-rule:evenodd;fill:#00a1cb;fill-opacity:1;" d="M 117.4375 385.425781 L 211.023438 311.167969 C 136.597656 268.203125 99.386719 246.722656 99.386719 246.722656 C 78.984375 257.585938 53.601562 257.894531 51.308594 274.289062 C 50.015625 283.570312 51.609375 324.65625 55.214844 333.628906 C 56.695312 337.316406 58.664062 340.972656 61.101562 344.566406 C 71.632812 360.082031 90.914062 374.449219 117.4375 385.425781 Z M 117.4375 385.425781 "/><path style=" stroke:none;fill-rule:evenodd;fill:#27c6e4;fill-opacity:1;" d="M 117.4375 346.3125 L 213.417969 272.652344 C 138.996094 229.6875 99.386719 207.609375 99.386719 207.609375 C 75.480469 220.335938 60.496094 235.769531 54.429688 253.910156 C 50.136719 266.753906 50.144531 281.886719 55.214844 294.515625 C 63.09375 314.128906 84.769531 332.792969 117.4375 346.3125 Z M 117.4375 346.3125 "/><path style=" stroke:none;fill-rule:evenodd;fill:#02bad4;fill-opacity:1;" d="M 134.003906 372.285156 L 117.4375 385.425781 L 117.4375 346.3125 L 211.210938 271.375 L 215.871094 277.199219 L 218.734375 301.566406 Z M 134.003906 372.285156 "/><path style=" stroke:none;fill-rule:evenodd;fill:#ffac01;fill-opacity:1;" d="M 211.210938 234.175781 L 276.90625 191.078125 L 340.570312 177.367188 L 340.570312 235.003906 L 270.628906 302.894531 L 211.210938 291.421875 Z M 211.210938 234.175781 "/><path style=" stroke:none;fill-rule:evenodd;fill:#ffcb45;fill-opacity:1;" d="M 296.976562 155.050781 C 312.496094 160.375 327.175781 167.890625 340.570312 177.367188 L 283.925781 202.242188 L 211.210938 234.175781 Z M 296.976562 155.050781 "/><g clip-rule="nonzero" clip-path="url(#3729ee947c)"><path style=" stroke:none;fill-rule:evenodd;fill:#c3007b;fill-opacity:1;" d="M 117.4375 385.425781 L 117.4375 366.351562 C 117.4375 362.46875 150.023438 368.574219 154.394531 367.109375 C 173.898438 360.550781 198.171875 365.011719 208.722656 358.171875 C 236.460938 340.199219 211.210938 310.5 211.210938 310.5 C 297.449219 272.886719 340.570312 254.082031 340.570312 254.082031 C 356.859375 263.402344 373.039062 272.628906 373.039062 290.980469 L 373.039062 310.058594 C 373.039062 374.640625 275.160156 399.730469 223.542969 402.667969 C 187.855469 404.699219 151.882812 399.140625 117.4375 385.425781 Z M 117.4375 385.425781 "/></g><g clip-rule="nonzero" clip-path="url(#3767c207ea)"><path style=" stroke:none;fill-rule:evenodd;fill:#f2008d;fill-opacity:1;" d="M 117.4375 366.351562 C 179.953125 316.398438 211.210938 291.421875 211.210938 291.421875 C 297.449219 253.8125 340.570312 235.003906 340.570312 235.003906 C 360.648438 246.492188 373.039062 267.851562 373.039062 290.980469 C 373.039062 355.5625 275.160156 380.652344 223.542969 383.589844 C 187.855469 385.621094 151.882812 380.0625 117.4375 366.351562 Z M 117.4375 366.351562 "/></g><path style=" stroke:none;fill-rule:nonzero;fill:#ff3500;fill-opacity:1;" d="M 230.113281 198.679688 C 230.113281 199.03125 230.074219 199.382812 229.988281 199.734375 C 229.902344 200.085938 229.777344 200.433594 229.605469 200.777344 C 229.4375 201.121094 229.230469 201.464844 228.976562 201.800781 C 228.726562 202.136719 228.4375 202.46875 228.105469 202.792969 C 227.773438 203.121094 227.40625 203.4375 226.996094 203.746094 C 226.589844 204.058594 226.144531 204.359375 225.664062 204.652344 C 225.183594 204.945312 224.671875 205.226562 224.121094 205.5 C 223.574219 205.773438 222.992188 206.03125 222.382812 206.28125 C 221.769531 206.53125 221.128906 206.765625 220.460938 206.988281 C 219.792969 207.214844 219.101562 207.421875 218.382812 207.617188 C 217.664062 207.8125 216.921875 207.996094 216.160156 208.160156 C 215.394531 208.328125 214.617188 208.476562 213.816406 208.613281 C 213.019531 208.746094 212.203125 208.863281 211.378906 208.96875 C 210.550781 209.070312 209.710938 209.15625 208.863281 209.222656 C 208.015625 209.292969 207.160156 209.34375 206.300781 209.378906 C 205.441406 209.414062 204.578125 209.429688 203.714844 209.429688 C 202.847656 209.429688 201.984375 209.414062 201.125 209.378906 C 200.265625 209.34375 199.410156 209.292969 198.5625 209.222656 C 197.714844 209.15625 196.878906 209.070312 196.050781 208.96875 C 195.222656 208.863281 194.410156 208.746094 193.609375 208.613281 C 192.8125 208.476562 192.03125 208.328125 191.269531 208.160156 C 190.503906 207.996094 189.765625 207.8125 189.046875 207.617188 C 188.328125 207.421875 187.632812 207.214844 186.964844 206.988281 C 186.296875 206.765625 185.65625 206.53125 185.046875 206.28125 C 184.433594 206.03125 183.855469 205.773438 183.304688 205.5 C 182.757812 205.226562 182.242188 204.945312 181.761719 204.652344 C 181.28125 204.359375 180.835938 204.058594 180.429688 203.746094 C 180.023438 203.4375 179.652344 203.121094 179.320312 202.792969 C 178.992188 202.46875 178.699219 202.136719 178.449219 201.800781 C 178.199219 201.464844 177.988281 201.125 177.820312 200.777344 C 177.652344 200.433594 177.523438 200.085938 177.4375 199.734375 C 177.355469 199.382812 177.3125 199.03125 177.3125 198.679688 C 177.3125 198.328125 177.355469 197.976562 177.4375 197.628906 C 177.523438 197.277344 177.652344 196.929688 177.820312 196.582031 C 177.988281 196.238281 178.199219 195.898438 178.449219 195.558594 C 178.699219 195.222656 178.992188 194.890625 179.320312 194.566406 C 179.652344 194.242188 180.023438 193.925781 180.429688 193.613281 C 180.835938 193.304688 181.28125 193 181.761719 192.707031 C 182.242188 192.414062 182.757812 192.132812 183.304688 191.863281 C 183.855469 191.589844 184.433594 191.328125 185.046875 191.078125 C 185.65625 190.832031 186.296875 190.59375 186.964844 190.371094 C 187.632812 190.148438 188.328125 189.9375 189.046875 189.742188 C 189.765625 189.546875 190.503906 189.367188 191.269531 189.199219 C 192.03125 189.035156 192.8125 188.882812 193.609375 188.75 C 194.410156 188.613281 195.222656 188.496094 196.050781 188.394531 C 196.878906 188.292969 197.714844 188.207031 198.5625 188.136719 C 199.410156 188.070312 200.265625 188.019531 201.125 187.984375 C 201.984375 187.949219 202.847656 187.929688 203.714844 187.929688 C 204.578125 187.929688 205.441406 187.949219 206.300781 187.984375 C 207.160156 188.019531 208.015625 188.070312 208.863281 188.136719 C 209.710938 188.207031 210.550781 188.292969 211.378906 188.394531 C 212.203125 188.496094 213.019531 188.613281 213.816406 188.75 C 214.617188 188.882812 215.394531 189.035156 216.160156 189.199219 C 216.921875 189.367188 217.664062 189.546875 218.382812 189.742188 C 219.101562 189.9375 219.792969 190.148438 220.460938 190.371094 C 221.128906 190.59375 221.769531 190.832031 222.382812 191.078125 C 222.992188 191.328125 223.574219 191.589844 224.121094 191.863281 C 224.671875 192.132812 225.183594 192.414062 225.664062 192.707031 C 226.144531 193 226.589844 193.304688 226.996094 193.613281 C 227.40625 193.925781 227.773438 194.242188 228.105469 194.566406 C 228.4375 194.890625 228.726562 195.222656 228.976562 195.558594 C 229.230469 195.898438 229.4375 196.238281 229.605469 196.582031 C 229.777344 196.929688 229.902344 197.277344 229.988281 197.628906 C 230.074219 197.976562 230.113281 198.328125 230.113281 198.679688 Z M 230.113281 198.679688 "/><path style=" stroke:none;fill-rule:evenodd;fill:#1a1a1a;fill-opacity:1;" d="M 204.085938 84.863281 C 205.8125 85.773438 208.828125 87.332031 209.929688 88.90625 C 207.519531 91.261719 209.820312 93.089844 207.855469 95.714844 C 206.820312 97.097656 198.714844 103.847656 203.394531 104.566406 L 210.617188 103.609375 C 214.589844 102.925781 219.070312 105.011719 221.035156 108.277344 L 221.039062 108.28125 C 220.789062 108.132812 220.53125 108 220.269531 107.878906 L 220.261719 107.878906 C 178.289062 132.339844 191.398438 101.75 185.132812 150.199219 L 184.828125 151.328125 C 185.339844 153.230469 185.539062 153.070312 187.222656 152.925781 L 187.242188 153.800781 L 187.316406 153.789062 C 186.445312 154.550781 183.875 153.769531 181.996094 153.058594 C 180.375 152.453125 178.679688 151.273438 178.070312 150.070312 C 178.441406 130.28125 178.625 120.382812 178.625 120.382812 C 178.941406 112.359375 182.101562 107.792969 188.828125 106.503906 L 202.890625 104.632812 C 200.878906 104.71875 197.28125 103.0625 195.65625 102.207031 C 191.425781 99.980469 189.878906 94.292969 192.207031 89.503906 C 194.535156 84.714844 199.851562 82.636719 204.085938 84.863281 Z M 223.21875 149.265625 C 222.308594 149.933594 218.710938 147.921875 217.679688 147.460938 C 216.734375 147.039062 216.0625 146.183594 215.871094 145.175781 L 215.867188 144.660156 C 210.710938 140.695312 211.652344 136.464844 212.894531 132.972656 C 214.601562 128.164062 213.535156 123.285156 213.996094 120.542969 C 215.367188 112.351562 220.671875 114.082031 221.542969 120.554688 C 221.550781 120.636719 223.289062 124.105469 222.714844 127.675781 C 222.351562 129.949219 220.839844 132.472656 222.445312 134.441406 C 228.527344 141.914062 218.921875 149.492188 223.074219 149.277344 L 223.097656 149.273438 L 223.125 149.273438 L 223.148438 149.269531 L 223.171875 149.269531 L 223.195312 149.265625 L 223.222656 149.265625 Z M 211.632812 199.921875 C 210.167969 200.84375 205.710938 199.152344 204.757812 198.65625 C 204.035156 198.285156 203.25 197.640625 202.640625 196.886719 L 200.644531 152.292969 C 200.6875 151.171875 202.691406 148.566406 203.738281 148.332031 C 206.246094 147.058594 207.820312 150.132812 208.480469 153.277344 C 210.417969 162.519531 207.277344 197.242188 211.40625 199.917969 L 211.484375 199.921875 Z M 197.007812 201.105469 C 194.011719 200.167969 189.148438 197.230469 189.128906 195.269531 C 189.082031 178.089844 189.042969 164.054688 189.007812 152.960938 C 189.027344 152.941406 189.046875 152.921875 189.066406 152.902344 L 189.117188 152.851562 L 189.121094 152.84375 C 185.890625 142.625 182.542969 112.71875 191.855469 119.335938 C 196.980469 115.382812 195.125 131.640625 195.015625 143.035156 C 194.898438 155.902344 196.933594 193.25 198.113281 199.34375 C 198.191406 199.390625 196.636719 200.933594 196.722656 200.976562 L 196.738281 200.984375 L 196.796875 201.011719 L 196.808594 201.019531 C 196.875 201.046875 196.9375 201.074219 197.003906 201.101562 Z M 197.007812 201.105469 "/><path style=" stroke:none;fill-rule:evenodd;fill:#333333;fill-opacity:1;" d="M 183.886719 151.511719 C 184.238281 132.628906 184.414062 123.1875 184.414062 123.1875 C 184.714844 115.53125 187.734375 111.171875 194.148438 109.945312 C 208.007812 108.101562 214.9375 107.179688 214.9375 107.179688 C 219.835938 106.339844 224.5 109.589844 225.402344 114.476562 C 225.722656 135.453125 225.878906 145.9375 225.878906 145.9375 C 226.003906 147.007812 225.542969 148.0625 224.675781 148.699219 C 223.808594 149.335938 222.664062 149.460938 221.679688 149.023438 C 220.695312 148.585938 220.023438 147.652344 219.914062 146.582031 C 219.9375 128.613281 219.953125 119.628906 219.953125 119.628906 C 220.011719 118.808594 219.59375 118.027344 218.875 117.625 C 218.160156 117.222656 217.277344 117.269531 216.605469 117.742188 C 215.933594 118.21875 215.597656 119.039062 215.742188 119.847656 C 215.871094 145.394531 215.9375 158.167969 215.9375 158.167969 C 215.910156 182.820312 215.898438 195.148438 215.898438 195.148438 C 216.082031 196.789062 215.3125 198.386719 213.914062 199.265625 C 212.519531 200.144531 210.742188 200.144531 209.347656 199.265625 C 207.949219 198.386719 207.179688 196.789062 207.367188 195.148438 C 207.355469 166.472656 207.347656 152.132812 207.347656 152.132812 C 207.382812 150.800781 206.335938 149.695312 205.003906 149.652344 C 203.675781 149.609375 202.5625 150.648438 202.511719 151.980469 C 202.597656 182.21875 202.640625 197.335938 202.640625 197.335938 C 202.621094 199.585938 200.789062 201.398438 198.539062 201.398438 C 196.289062 201.398438 194.457031 199.585938 194.4375 197.335938 C 194.300781 147.683594 194.230469 122.855469 194.230469 122.855469 C 194.246094 122.078125 193.839844 121.351562 193.167969 120.953125 C 192.496094 120.5625 191.660156 120.5625 190.988281 120.953125 C 190.316406 121.351562 189.910156 122.078125 189.925781 122.855469 C 189.945312 141.367188 189.953125 150.625 189.953125 150.625 C 190.011719 152.199219 188.875 153.5625 187.316406 153.789062 C 185.757812 154.015625 184.28125 153.035156 183.886719 151.511719 Z M 208.8125 88.179688 C 212.636719 90.1875 214.03125 95.324219 211.929688 99.648438 C 209.828125 103.976562 205.023438 105.851562 201.203125 103.84375 C 197.378906 101.832031 195.984375 96.695312 198.085938 92.371094 C 200.1875 88.046875 204.992188 86.167969 208.8125 88.179688 Z M 208.8125 88.179688 "/><path style=" stroke:none;fill-rule:nonzero;fill:#ffac01;fill-opacity:1;" d="M 315.726562 181.035156 C 315.726562 181.527344 315.609375 182.015625 315.371094 182.496094 C 315.136719 182.980469 314.789062 183.449219 314.324219 183.90625 C 313.863281 184.359375 313.292969 184.792969 312.621094 185.203125 C 311.949219 185.609375 311.1875 185.988281 310.332031 186.339844 C 309.476562 186.6875 308.542969 186.996094 307.539062 187.269531 C 306.535156 187.542969 305.472656 187.777344 304.355469 187.964844 C 303.238281 188.152344 302.085938 188.296875 300.898438 188.390625 C 299.710938 188.488281 298.511719 188.535156 297.304688 188.535156 C 296.09375 188.535156 294.894531 188.488281 293.710938 188.390625 C 292.523438 188.296875 291.371094 188.152344 290.253906 187.964844 C 289.136719 187.777344 288.074219 187.542969 287.070312 187.269531 C 286.0625 186.996094 285.132812 186.6875 284.277344 186.339844 C 283.421875 185.988281 282.65625 185.609375 281.984375 185.203125 C 281.3125 184.792969 280.746094 184.359375 280.285156 183.90625 C 279.820312 183.449219 279.472656 182.980469 279.234375 182.496094 C 279 182.015625 278.882812 181.527344 278.882812 181.035156 C 278.882812 180.542969 279 180.054688 279.234375 179.570312 C 279.472656 179.085938 279.820312 178.617188 280.285156 178.164062 C 280.746094 177.707031 281.3125 177.277344 281.984375 176.867188 C 282.65625 176.457031 283.421875 176.078125 284.277344 175.730469 C 285.132812 175.382812 286.0625 175.070312 287.070312 174.796875 C 288.074219 174.523438 289.136719 174.292969 290.253906 174.105469 C 291.371094 173.914062 292.523438 173.773438 293.710938 173.675781 C 294.894531 173.582031 296.09375 173.53125 297.304688 173.53125 C 298.511719 173.53125 299.710938 173.582031 300.898438 173.675781 C 302.085938 173.773438 303.238281 173.914062 304.355469 174.105469 C 305.472656 174.292969 306.535156 174.523438 307.539062 174.796875 C 308.542969 175.070312 309.476562 175.382812 310.332031 175.730469 C 311.1875 176.078125 311.949219 176.457031 312.621094 176.867188 C 313.292969 177.277344 313.863281 177.707031 314.324219 178.164062 C 314.789062 178.617188 315.136719 179.085938 315.371094 179.570312 C 315.609375 180.054688 315.726562 180.542969 315.726562 181.035156 Z M 315.726562 181.035156 "/><path style=" stroke:none;fill-rule:evenodd;fill:#333333;fill-opacity:1;" d="M 301.078125 106.152344 C 303.859375 107.152344 305.25 110.378906 304.179688 113.359375 C 303.109375 116.339844 299.984375 117.949219 297.203125 116.949219 C 294.417969 115.949219 291.046875 111.914062 292.117188 108.933594 C 293.1875 105.953125 298.296875 105.15625 301.078125 106.152344 Z M 284.453125 129.671875 C 285.921875 123.96875 288.769531 120.933594 293.175781 119.917969 C 299.695312 119.050781 303.308594 118.699219 303.308594 118.699219 C 303.6875 118.695312 305.238281 119.300781 305.589844 119.34375 C 308.507812 119.722656 310.402344 121.714844 311.273438 125.324219 C 314.402344 136.246094 315.964844 141.707031 315.964844 141.707031 C 316.175781 142.410156 315.988281 143.171875 315.480469 143.699219 C 314.96875 144.222656 314.210938 144.433594 313.503906 144.242188 C 313.246094 144.171875 313.011719 144.054688 312.804688 143.902344 C 312.445312 143.628906 311.035156 143.324219 310.921875 142.871094 C 310.546875 141.460938 310.539062 140.238281 310.164062 139.039062 C 307.625 130.824219 306.078125 127.171875 306.078125 127.171875 C 305.824219 126.339844 306.9375 127.039062 306.078125 127.171875 C 305.214844 127.308594 305.773438 127.078125 305.785156 127.949219 C 306.667969 131.027344 307.234375 131.941406 307.960938 134.480469 C 308.539062 136.503906 307.769531 139.066406 308.25 140.746094 C 310.605469 148.957031 311.785156 153.0625 311.785156 153.0625 C 311.941406 153.691406 311.839844 154.363281 311.5 154.914062 C 311.160156 155.46875 310.609375 155.859375 309.976562 156 C 306.886719 156.378906 305.34375 156.566406 305.34375 156.566406 C 305.265625 172.535156 305.230469 180.523438 305.230469 180.523438 C 305.097656 181.699219 304.101562 182.59375 302.914062 182.59375 C 301.726562 182.59375 299.90625 181.34375 299.773438 180.164062 C 299.777344 178.722656 299.027344 177.855469 298.996094 176.574219 C 298.671875 163.957031 298.324219 158.808594 298.324219 158.808594 C 298.246094 158.21875 300.007812 158.078125 299.460938 157.851562 C 298.910156 157.628906 299.230469 156.464844 298.761719 156.828125 C 298.292969 157.191406 299.375 157.265625 299.460938 157.851562 C 299.546875 169.90625 297.515625 176.960938 297.535156 179.753906 L 297.542969 181.140625 C 297.613281 182.011719 297.1875 182.847656 296.441406 183.304688 C 295.695312 183.757812 294.757812 183.757812 294.015625 183.304688 C 293.269531 182.847656 291.617188 181.523438 291.683594 180.652344 C 291.683594 180.046875 291.671875 179.101562 291.667969 178.527344 C 291.53125 164.632812 291.03125 160.644531 291.03125 160.644531 C 289.414062 160.871094 290.117188 158.652344 289.378906 158.753906 C 288.757812 158.839844 288.449219 158.882812 288.449219 158.882812 C 287.949219 158.996094 287.53125 159.007812 287.191406 158.929688 C 286.28125 158.710938 284.621094 157.671875 284.863281 156.054688 C 284.976562 155.609375 284.773438 155.441406 284.78125 154.984375 C 284.816406 153.351562 285.9375 151.503906 286.265625 150.128906 C 289.738281 135.726562 291.132812 130.308594 291.132812 130.308594 C 291.449219 129.621094 292.027344 128.707031 291.550781 129.292969 C 290.398438 130.714844 291.683594 129.039062 291.285156 129.683594 C 288.308594 141.851562 287.152344 147.765625 287.152344 147.765625 C 286.832031 148.773438 284.726562 148.632812 283.6875 148.429688 C 283.414062 148.378906 283.160156 148.273438 282.941406 148.125 C 282.324219 147.722656 280.273438 146.117188 280.328125 145.339844 C 282.820312 133.644531 284.414062 129.636719 284.453125 129.671875 Z M 284.453125 129.671875 "/><path style=" stroke:none;fill-rule:evenodd;fill:#1a1a1a;fill-opacity:1;" d="M 296.730469 104.851562 L 301.078125 106.152344 C 298.296875 105.15625 295.171875 106.761719 294.101562 109.742188 C 293.03125 112.722656 294.417969 115.949219 297.203125 116.949219 L 293.136719 115.605469 C 290.625 114.777344 288.890625 112.5 289.628906 109.175781 C 290.363281 105.847656 293.898438 104 296.730469 104.851562 Z M 282.746094 127.398438 C 284.214844 121.691406 286.308594 119.316406 290.714844 118.300781 L 298.691406 117.238281 C 299.292969 117.265625 299.886719 117.183594 300.457031 117.003906 L 300.488281 117 C 302.699219 116.992188 304.414062 117.777344 305.625 119.347656 C 305.261719 119.300781 304.886719 119.277344 304.496094 119.277344 C 304.496094 119.277344 301.234375 119.710938 294.71875 120.578125 C 290.3125 121.59375 288.222656 123.96875 286.75 129.671875 C 286.75 129.671875 285.171875 135.191406 282.007812 146.226562 C 281.949219 147 282.320312 147.714844 282.929688 148.121094 L 279.683594 146.152344 C 278.777344 145.605469 277.921875 145.003906 278 143.949219 C 281.164062 132.914062 282.746094 127.398438 282.746094 127.398438 Z M 313.429688 144.21875 L 313.425781 144.21875 Z M 313.210938 144.140625 L 309.578125 142.78125 C 309.164062 142.625 308.777344 142.113281 308.488281 141.570312 L 304.238281 126.765625 C 304.226562 125.894531 304.855469 125.144531 305.714844 125.011719 C 306.574219 124.875 307.40625 125.394531 307.660156 126.226562 C 307.660156 126.226562 309.128906 131.746094 312.066406 142.78125 C 312.21875 143.390625 312.644531 143.890625 313.210938 144.140625 Z M 301.46875 182.089844 L 297.535156 179.753906 L 297.375 157.527344 C 297.292969 156.9375 297.527344 156.351562 297.996094 155.988281 C 298.460938 155.625 299.089844 155.539062 299.640625 155.761719 C 300.1875 155.988281 300.574219 156.488281 300.652344 157.074219 C 300.652344 157.074219 300.632812 164.890625 300.597656 180.523438 C 300.667969 181.160156 300.996094 181.71875 301.46875 182.089844 Z M 294.015625 183.304688 L 290.007812 181.027344 C 289.25 180.59375 288.835938 179.734375 288.90625 178.867188 L 288.90625 158.820312 L 292.910156 158.261719 C 292.910156 158.261719 292.910156 165.890625 292.910156 181.140625 C 292.84375 182.011719 293.269531 182.847656 294.015625 183.304688 Z M 287.554688 158.976562 C 285.621094 159.164062 281.441406 158.320312 282.179688 153.894531 L 283.625 148.417969 C 283.644531 148.421875 283.667969 148.425781 283.6875 148.429688 C 284.726562 148.632812 285.753906 148.027344 286.074219 147.019531 C 286.074219 147.019531 287.5625 140.933594 290.539062 128.769531 C 290.9375 128.125 291.765625 127.902344 292.433594 128.261719 C 293.101562 128.621094 293.375 129.4375 293.054688 130.125 C 293.054688 130.125 291.085938 137.601562 286.1875 156.171875 C 285.917969 157.988281 286.371094 158.925781 287.554688 158.976562 Z M 287.554688 158.976562 "/><path style=" stroke:none;fill-rule:nonzero;fill:#00a1cb;fill-opacity:1;" d="M 149.078125 279.953125 C 149.078125 280.351562 149.027344 280.746094 148.933594 281.136719 C 148.839844 281.53125 148.695312 281.921875 148.507812 282.308594 C 148.316406 282.699219 148.082031 283.082031 147.800781 283.457031 C 147.519531 283.835938 147.191406 284.207031 146.820312 284.574219 C 146.449219 284.9375 146.035156 285.296875 145.578125 285.644531 C 145.117188 285.992188 144.621094 286.332031 144.082031 286.660156 C 143.542969 286.988281 142.964844 287.304688 142.347656 287.613281 C 141.730469 287.917969 141.082031 288.210938 140.394531 288.488281 C 139.707031 288.769531 138.988281 289.035156 138.238281 289.285156 C 137.488281 289.535156 136.710938 289.769531 135.902344 289.992188 C 135.09375 290.210938 134.261719 290.414062 133.40625 290.597656 C 132.550781 290.785156 131.675781 290.953125 130.777344 291.105469 C 129.878906 291.257812 128.96875 291.390625 128.039062 291.503906 C 127.109375 291.621094 126.167969 291.714844 125.214844 291.792969 C 124.265625 291.871094 123.304688 291.929688 122.339844 291.964844 C 121.371094 292.003906 120.402344 292.023438 119.433594 292.023438 C 118.460938 292.023438 117.492188 292.003906 116.527344 291.964844 C 115.5625 291.929688 114.601562 291.871094 113.648438 291.792969 C 112.699219 291.714844 111.757812 291.621094 110.828125 291.503906 C 109.898438 291.390625 108.984375 291.257812 108.089844 291.105469 C 107.191406 290.953125 106.316406 290.785156 105.457031 290.597656 C 104.601562 290.414062 103.769531 290.210938 102.964844 289.992188 C 102.15625 289.769531 101.378906 289.535156 100.628906 289.285156 C 99.875 289.035156 99.15625 288.769531 98.472656 288.488281 C 97.785156 288.210938 97.132812 287.917969 96.519531 287.613281 C 95.902344 287.304688 95.324219 286.988281 94.785156 286.660156 C 94.246094 286.332031 93.746094 285.992188 93.289062 285.644531 C 92.832031 285.296875 92.417969 284.9375 92.046875 284.574219 C 91.675781 284.207031 91.347656 283.835938 91.066406 283.457031 C 90.785156 283.082031 90.546875 282.699219 90.359375 282.308594 C 90.167969 281.921875 90.027344 281.53125 89.933594 281.136719 C 89.835938 280.746094 89.789062 280.351562 89.789062 279.953125 C 89.789062 279.558594 89.835938 279.164062 89.933594 278.773438 C 90.027344 278.378906 90.167969 277.988281 90.359375 277.601562 C 90.546875 277.210938 90.785156 276.828125 91.066406 276.453125 C 91.347656 276.074219 91.675781 275.699219 92.046875 275.335938 C 92.417969 274.96875 92.832031 274.613281 93.289062 274.265625 C 93.746094 273.917969 94.246094 273.578125 94.785156 273.25 C 95.324219 272.921875 95.902344 272.601562 96.519531 272.296875 C 97.132812 271.992188 97.785156 271.699219 98.472656 271.421875 C 99.15625 271.140625 99.875 270.875 100.628906 270.625 C 101.378906 270.375 102.15625 270.140625 102.964844 269.917969 C 103.769531 269.699219 104.601562 269.496094 105.457031 269.308594 C 106.316406 269.125 107.191406 268.953125 108.089844 268.804688 C 108.984375 268.652344 109.898438 268.519531 110.828125 268.40625 C 111.757812 268.289062 112.699219 268.195312 113.648438 268.117188 C 114.601562 268.039062 115.5625 267.980469 116.527344 267.941406 C 117.492188 267.90625 118.460938 267.886719 119.433594 267.886719 C 120.402344 267.886719 121.371094 267.90625 122.339844 267.941406 C 123.304688 267.980469 124.265625 268.039062 125.214844 268.117188 C 126.167969 268.195312 127.109375 268.289062 128.039062 268.40625 C 128.96875 268.519531 129.878906 268.652344 130.777344 268.804688 C 131.675781 268.953125 132.550781 269.125 133.40625 269.308594 C 134.261719 269.496094 135.09375 269.699219 135.902344 269.917969 C 136.710938 270.140625 137.488281 270.375 138.238281 270.625 C 138.988281 270.875 139.707031 271.140625 140.394531 271.421875 C 141.082031 271.699219 141.730469 271.992188 142.347656 272.296875 C 142.964844 272.601562 143.542969 272.921875 144.082031 273.25 C 144.621094 273.578125 145.117188 273.917969 145.578125 274.265625 C 146.035156 274.613281 146.449219 274.96875 146.820312 275.335938 C 147.191406 275.699219 147.519531 276.074219 147.800781 276.453125 C 148.082031 276.828125 148.316406 277.210938 148.507812 277.601562 C 148.695312 277.988281 148.839844 278.378906 148.933594 278.773438 C 149.027344 279.164062 149.078125 279.558594 149.078125 279.953125 Z M 149.078125 279.953125 "/><path style=" stroke:none;fill-rule:evenodd;fill:#333333;fill-opacity:1;" d="M 125.546875 168.96875 C 129.660156 170.445312 131.710938 175.210938 130.128906 179.617188 C 128.546875 184.023438 123.929688 186.394531 119.820312 184.917969 C 115.707031 183.445312 110.722656 177.484375 112.304688 173.078125 C 113.886719 168.671875 121.433594 167.492188 125.546875 168.96875 Z M 100.980469 203.726562 C 103.148438 195.292969 107.359375 190.808594 113.871094 189.304688 C 123.5 188.027344 128.839844 187.507812 128.839844 187.507812 C 129.402344 187.503906 131.695312 188.394531 132.214844 188.460938 C 136.523438 189.019531 139.324219 191.964844 140.617188 197.296875 C 145.234375 213.4375 147.546875 221.507812 147.546875 221.507812 C 147.859375 222.546875 147.582031 223.671875 146.828125 224.449219 C 146.070312 225.226562 144.953125 225.535156 143.90625 225.253906 C 143.527344 225.152344 143.179688 224.976562 142.878906 224.746094 C 142.34375 224.34375 140.261719 223.894531 140.09375 223.226562 C 139.539062 221.140625 139.527344 219.339844 138.976562 217.5625 C 135.21875 205.425781 132.933594 200.03125 132.933594 200.03125 C 132.558594 198.800781 134.203125 199.832031 132.933594 200.03125 C 131.660156 200.230469 132.480469 199.886719 132.503906 201.175781 C 133.808594 205.726562 134.640625 207.074219 135.714844 210.824219 C 136.574219 213.816406 135.433594 217.605469 136.144531 220.085938 C 139.628906 232.222656 141.367188 238.289062 141.367188 238.289062 C 141.601562 239.21875 141.449219 240.207031 140.949219 241.023438 C 140.445312 241.839844 139.632812 242.421875 138.695312 242.628906 C 134.128906 243.1875 131.847656 243.464844 131.847656 243.464844 C 131.738281 267.066406 131.679688 278.867188 131.679688 278.867188 C 131.484375 280.609375 130.011719 281.925781 128.257812 281.925781 C 126.503906 281.925781 123.8125 280.078125 123.617188 278.335938 C 123.621094 276.207031 122.515625 274.925781 122.46875 273.035156 C 121.992188 254.386719 121.476562 246.777344 121.476562 246.777344 C 121.359375 245.910156 123.964844 245.699219 123.15625 245.367188 C 122.34375 245.035156 122.8125 243.316406 122.121094 243.855469 C 121.429688 244.394531 123.03125 244.5 123.15625 245.367188 C 123.28125 263.175781 120.28125 273.605469 120.308594 277.730469 L 120.324219 279.785156 C 120.425781 281.070312 119.792969 282.304688 118.695312 282.976562 C 117.59375 283.652344 116.207031 283.652344 115.109375 282.976562 C 114.007812 282.304688 111.5625 280.34375 111.664062 279.058594 C 111.664062 278.164062 111.648438 276.765625 111.640625 275.921875 C 111.4375 255.386719 110.699219 249.492188 110.699219 249.492188 C 108.3125 249.824219 109.347656 246.546875 108.257812 246.699219 C 107.339844 246.824219 106.882812 246.890625 106.882812 246.890625 C 106.144531 247.054688 105.527344 247.074219 105.027344 246.957031 C 103.679688 246.632812 101.222656 245.097656 101.582031 242.707031 C 101.753906 242.050781 101.449219 241.804688 101.464844 241.125 C 101.515625 238.714844 103.167969 235.984375 103.660156 233.953125 C 108.792969 212.671875 110.847656 204.664062 110.847656 204.664062 C 111.320312 203.648438 112.167969 202.296875 111.464844 203.164062 C 109.765625 205.265625 111.664062 202.789062 111.074219 203.738281 C 106.675781 221.71875 104.96875 230.460938 104.96875 230.460938 C 104.492188 231.949219 101.382812 231.742188 99.847656 231.445312 C 99.441406 231.367188 99.070312 231.210938 98.742188 230.996094 C 97.832031 230.394531 94.800781 228.023438 94.886719 226.875 C 98.566406 209.59375 100.921875 203.667969 100.980469 203.726562 Z M 100.980469 203.726562 "/><path style=" stroke:none;fill-rule:evenodd;fill:#1a1a1a;fill-opacity:1;" d="M 119.121094 167.042969 L 125.546875 168.96875 C 121.433594 167.492188 116.816406 169.867188 115.234375 174.273438 C 113.65625 178.675781 115.707031 183.445312 119.820312 184.917969 L 113.8125 182.9375 C 110.101562 181.710938 107.539062 178.347656 108.625 173.433594 C 109.710938 168.519531 114.933594 165.785156 119.121094 167.042969 Z M 98.457031 200.359375 C 100.625 191.925781 103.71875 188.421875 110.230469 186.917969 L 122.019531 185.351562 C 122.90625 185.386719 123.789062 185.265625 124.628906 185.003906 L 124.675781 184.996094 C 127.941406 184.988281 130.472656 186.144531 132.265625 188.46875 C 131.730469 188.394531 131.175781 188.359375 130.59375 188.363281 C 130.59375 188.363281 125.78125 189.003906 116.148438 190.28125 C 109.636719 191.785156 106.546875 195.292969 104.375 203.726562 C 104.375 203.726562 102.039062 211.878906 97.363281 228.1875 C 97.277344 229.328125 97.828125 230.382812 98.726562 230.984375 L 93.929688 228.078125 C 92.589844 227.269531 91.328125 226.382812 91.441406 224.820312 C 96.121094 208.511719 98.457031 200.359375 98.457031 200.359375 Z M 143.800781 225.222656 C 143.800781 225.222656 143.796875 225.222656 143.796875 225.222656 L 143.796875 225.21875 Z M 143.476562 225.101562 L 138.109375 223.09375 C 137.496094 222.867188 136.921875 222.109375 136.496094 221.308594 L 130.21875 199.425781 C 130.199219 198.136719 131.128906 197.035156 132.402344 196.835938 C 133.671875 196.632812 134.898438 197.402344 135.269531 198.632812 C 135.269531 198.632812 137.441406 206.785156 141.785156 223.09375 C 142.011719 223.996094 142.640625 224.734375 143.476562 225.101562 Z M 126.125 281.1875 L 120.308594 277.730469 L 120.074219 244.886719 C 119.949219 244.019531 120.300781 243.148438 120.992188 242.613281 C 121.683594 242.074219 122.609375 241.945312 123.417969 242.277344 C 124.230469 242.609375 124.800781 243.347656 124.917969 244.21875 C 124.917969 244.21875 124.890625 255.765625 124.835938 278.867188 C 124.941406 279.8125 125.421875 280.632812 126.125 281.1875 Z M 115.109375 282.976562 L 109.1875 279.613281 C 108.066406 278.976562 107.457031 277.703125 107.558594 276.417969 L 107.558594 246.796875 L 113.476562 245.96875 C 113.476562 245.96875 113.476562 257.242188 113.476562 279.785156 C 113.378906 281.070312 114.007812 282.304688 115.109375 282.976562 Z M 105.5625 247.03125 C 102.707031 247.304688 96.527344 246.054688 97.621094 239.515625 L 99.753906 231.425781 C 99.785156 231.433594 99.816406 231.4375 99.847656 231.445312 C 101.382812 231.742188 102.898438 230.84375 103.375 229.355469 C 103.375 229.355469 105.574219 220.367188 109.972656 202.386719 C 110.558594 201.4375 111.789062 201.109375 112.773438 201.640625 C 113.757812 202.167969 114.160156 203.375 113.691406 204.390625 C 113.691406 204.390625 110.777344 215.441406 103.542969 242.882812 C 103.140625 245.570312 103.816406 246.953125 105.5625 247.03125 Z M 105.5625 247.03125 "/><path style=" stroke:none;fill-rule:nonzero;fill:#c3007b;fill-opacity:1;" d="M 301.105469 334.65625 C 301.105469 335.007812 301.0625 335.359375 300.976562 335.710938 C 300.890625 336.0625 300.765625 336.410156 300.597656 336.753906 C 300.429688 337.097656 300.21875 337.441406 299.96875 337.777344 C 299.714844 338.113281 299.425781 338.445312 299.09375 338.769531 C 298.761719 339.097656 298.394531 339.414062 297.988281 339.722656 C 297.578125 340.035156 297.136719 340.335938 296.65625 340.628906 C 296.175781 340.921875 295.660156 341.203125 295.109375 341.476562 C 294.5625 341.75 293.984375 342.007812 293.371094 342.257812 C 292.757812 342.507812 292.121094 342.742188 291.453125 342.964844 C 290.78125 343.191406 290.089844 343.398438 289.371094 343.59375 C 288.652344 343.789062 287.910156 343.972656 287.148438 344.136719 C 286.386719 344.304688 285.605469 344.453125 284.804688 344.589844 C 284.007812 344.722656 283.195312 344.839844 282.367188 344.945312 C 281.539062 345.046875 280.703125 345.132812 279.851562 345.199219 C 279.003906 345.269531 278.152344 345.320312 277.289062 345.355469 C 276.429688 345.390625 275.566406 345.40625 274.703125 345.40625 C 273.839844 345.40625 272.976562 345.390625 272.113281 345.355469 C 271.253906 345.320312 270.398438 345.269531 269.550781 345.199219 C 268.703125 345.132812 267.867188 345.046875 267.039062 344.945312 C 266.210938 344.839844 265.398438 344.722656 264.597656 344.589844 C 263.800781 344.453125 263.019531 344.304688 262.257812 344.136719 C 261.496094 343.972656 260.753906 343.789062 260.035156 343.59375 C 259.316406 343.398438 258.621094 343.191406 257.953125 342.964844 C 257.285156 342.742188 256.644531 342.507812 256.035156 342.257812 C 255.421875 342.007812 254.84375 341.75 254.292969 341.476562 C 253.746094 341.203125 253.230469 340.921875 252.75 340.628906 C 252.269531 340.335938 251.828125 340.035156 251.417969 339.722656 C 251.011719 339.414062 250.640625 339.097656 250.3125 338.769531 C 249.980469 338.445312 249.6875 338.113281 249.4375 337.777344 C 249.1875 337.441406 248.976562 337.097656 248.808594 336.753906 C 248.640625 336.410156 248.511719 336.0625 248.429688 335.710938 C 248.34375 335.359375 248.300781 335.007812 248.300781 334.65625 C 248.300781 334.304688 248.34375 333.953125 248.429688 333.601562 C 248.511719 333.253906 248.640625 332.90625 248.808594 332.558594 C 248.976562 332.214844 249.1875 331.875 249.4375 331.535156 C 249.6875 331.199219 249.980469 330.867188 250.3125 330.542969 C 250.640625 330.21875 251.011719 329.898438 251.417969 329.589844 C 251.828125 329.277344 252.269531 328.976562 252.75 328.683594 C 253.230469 328.390625 253.746094 328.109375 254.292969 327.835938 C 254.84375 327.566406 255.421875 327.304688 256.035156 327.054688 C 256.644531 326.808594 257.285156 326.570312 257.953125 326.347656 C 258.621094 326.125 259.316406 325.914062 260.035156 325.71875 C 260.753906 325.523438 261.496094 325.34375 262.257812 325.175781 C 263.019531 325.011719 263.800781 324.859375 264.597656 324.726562 C 265.398438 324.589844 266.210938 324.472656 267.039062 324.371094 C 267.867188 324.269531 268.703125 324.183594 269.550781 324.113281 C 270.398438 324.046875 271.253906 323.992188 272.113281 323.960938 C 272.976562 323.925781 273.839844 323.90625 274.703125 323.90625 C 275.566406 323.90625 276.429688 323.925781 277.289062 323.960938 C 278.152344 323.992188 279.003906 324.046875 279.851562 324.113281 C 280.703125 324.183594 281.539062 324.269531 282.367188 324.371094 C 283.195312 324.472656 284.007812 324.589844 284.804688 324.726562 C 285.605469 324.859375 286.386719 325.011719 287.148438 325.175781 C 287.910156 325.34375 288.652344 325.523438 289.371094 325.71875 C 290.089844 325.914062 290.78125 326.125 291.453125 326.347656 C 292.121094 326.570312 292.757812 326.808594 293.371094 327.054688 C 293.984375 327.304688 294.5625 327.566406 295.109375 327.835938 C 295.660156 328.109375 296.175781 328.390625 296.65625 328.683594 C 297.136719 328.976562 297.578125 329.277344 297.988281 329.589844 C 298.394531 329.898438 298.761719 330.21875 299.09375 330.542969 C 299.425781 330.867188 299.714844 331.199219 299.96875 331.535156 C 300.21875 331.875 300.429688 332.214844 300.597656 332.558594 C 300.765625 332.90625 300.890625 333.253906 300.976562 333.601562 C 301.0625 333.953125 301.105469 334.304688 301.105469 334.65625 Z M 301.105469 334.65625 "/><path style=" stroke:none;fill-rule:evenodd;fill:#1a1a1a;fill-opacity:1;" d="M 275.074219 220.839844 C 276.800781 221.746094 279.816406 223.308594 280.917969 224.882812 C 278.511719 227.238281 280.808594 229.066406 278.84375 231.691406 C 277.808594 233.070312 269.707031 239.824219 274.382812 240.542969 L 281.605469 239.582031 C 285.578125 238.902344 290.058594 240.988281 292.027344 244.253906 L 292.027344 244.257812 C 291.777344 244.109375 291.519531 243.976562 291.257812 243.855469 L 291.25 243.851562 C 249.277344 268.3125 262.390625 237.726562 256.121094 286.175781 L 255.8125 287.304688 C 256.328125 289.203125 256.527344 289.046875 258.214844 288.902344 L 258.230469 289.777344 L 258.304688 289.765625 C 257.433594 290.527344 254.863281 289.746094 252.984375 289.035156 C 251.363281 288.429688 249.671875 287.25 249.058594 286.046875 C 249.429688 266.253906 249.613281 256.359375 249.613281 256.359375 C 249.929688 248.335938 253.089844 243.765625 259.816406 242.480469 L 273.878906 240.609375 C 271.867188 240.695312 268.269531 239.039062 266.644531 238.183594 C 262.414062 235.957031 260.867188 230.269531 263.195312 225.480469 C 265.523438 220.691406 270.839844 218.613281 275.074219 220.839844 Z M 294.207031 285.238281 C 293.296875 285.90625 289.699219 283.898438 288.671875 283.4375 C 287.722656 283.015625 287.050781 282.160156 286.859375 281.152344 L 286.855469 280.636719 C 281.699219 276.671875 282.640625 272.441406 283.882812 268.945312 C 285.589844 264.140625 284.523438 259.261719 284.984375 256.519531 C 286.355469 248.328125 291.660156 250.058594 292.53125 256.53125 C 292.539062 256.613281 294.28125 260.082031 293.707031 263.652344 C 293.339844 265.921875 291.832031 268.449219 293.433594 270.417969 C 299.515625 277.890625 289.910156 285.46875 294.0625 285.253906 L 294.089844 285.25 L 294.113281 285.25 L 294.136719 285.246094 L 294.160156 285.246094 Z M 282.621094 335.898438 C 281.15625 336.820312 276.699219 335.128906 275.746094 334.632812 C 275.023438 334.261719 274.238281 333.617188 273.628906 332.863281 L 271.632812 288.265625 C 271.675781 287.148438 273.679688 284.542969 274.726562 284.308594 C 277.234375 283.035156 278.8125 286.109375 279.46875 289.253906 C 281.410156 298.492188 278.265625 333.21875 282.398438 335.894531 L 282.472656 335.898438 Z M 267.996094 337.078125 C 265 336.144531 260.136719 333.207031 260.117188 331.246094 C 260.070312 314.0625 260.03125 300.03125 260 288.933594 C 260.019531 288.917969 260.039062 288.898438 260.054688 288.878906 L 260.085938 288.851562 L 260.105469 288.824219 L 260.113281 288.820312 C 256.878906 278.601562 253.53125 248.695312 262.847656 255.308594 C 267.972656 251.359375 266.113281 267.617188 266.007812 279.011719 C 265.886719 291.878906 267.925781 329.226562 269.101562 335.320312 C 269.179688 335.367188 267.628906 336.910156 267.710938 336.953125 L 267.726562 336.960938 L 267.785156 336.988281 L 267.796875 336.996094 C 267.863281 337.023438 267.925781 337.050781 267.992188 337.078125 Z M 267.996094 337.078125 "/><path style=" stroke:none;fill-rule:evenodd;fill:#333333;fill-opacity:1;" d="M 254.875 287.484375 C 255.226562 268.605469 255.402344 259.164062 255.402344 259.164062 C 255.703125 251.507812 258.722656 247.148438 265.136719 245.921875 C 278.996094 244.078125 285.925781 243.15625 285.925781 243.15625 C 290.824219 242.316406 295.488281 245.566406 296.394531 250.453125 C 296.710938 271.425781 296.867188 281.914062 296.867188 281.914062 C 296.992188 282.984375 296.53125 284.039062 295.664062 284.675781 C 294.796875 285.3125 293.652344 285.433594 292.667969 285 C 291.683594 284.5625 291.011719 283.628906 290.902344 282.558594 C 290.929688 264.589844 290.941406 255.605469 290.941406 255.605469 C 291 254.785156 290.582031 254.003906 289.863281 253.601562 C 289.148438 253.199219 288.265625 253.246094 287.59375 253.71875 C 286.921875 254.195312 286.585938 255.015625 286.730469 255.824219 C 286.859375 281.371094 286.925781 294.144531 286.925781 294.144531 C 286.898438 318.796875 286.886719 331.125 286.886719 331.125 C 287.070312 332.765625 286.300781 334.363281 284.90625 335.242188 C 283.507812 336.117188 281.734375 336.117188 280.335938 335.242188 C 278.941406 334.363281 278.167969 332.765625 278.355469 331.125 C 278.34375 302.449219 278.335938 288.109375 278.335938 288.109375 C 278.371094 286.777344 277.324219 285.671875 275.992188 285.628906 C 274.664062 285.585938 273.546875 286.625 273.5 287.953125 C 273.585938 318.195312 273.632812 333.3125 273.632812 333.3125 C 273.609375 335.5625 271.777344 337.375 269.527344 337.375 C 267.277344 337.375 265.445312 335.5625 265.425781 333.3125 C 265.289062 283.660156 265.21875 258.832031 265.21875 258.832031 C 265.238281 258.054688 264.832031 257.328125 264.15625 256.929688 C 263.484375 256.539062 262.652344 256.539062 261.976562 256.929688 C 261.304688 257.328125 260.898438 258.054688 260.914062 258.832031 C 260.933594 277.34375 260.941406 286.601562 260.941406 286.601562 C 261 288.175781 259.863281 289.539062 258.304688 289.765625 C 256.746094 289.992188 255.269531 289.007812 254.875 287.484375 Z M 279.800781 224.15625 C 283.625 226.164062 285.019531 231.300781 282.917969 235.625 C 280.816406 239.953125 276.015625 241.828125 272.191406 239.820312 C 268.371094 237.808594 266.972656 232.671875 269.074219 228.347656 C 271.175781 224.023438 275.980469 222.144531 279.800781 224.15625 Z M 279.800781 224.15625 "/><g clip-rule="nonzero" clip-path="url(#47cac59d85)"><path style=" stroke:none;fill-rule:nonzero;fill:#1a1a1a;fill-opacity:1;" d="M 244.707031 43.601562 C 244.707031 44.023438 244.625 44.425781 244.464844 44.816406 C 244.304688 45.207031 244.074219 45.550781 243.777344 45.847656 C 243.480469 46.144531 243.136719 46.375 242.746094 46.535156 C 242.355469 46.699219 241.949219 46.777344 241.53125 46.777344 C 241.109375 46.777344 240.703125 46.699219 240.3125 46.535156 C 239.925781 46.375 239.582031 46.144531 239.28125 45.847656 C 238.984375 45.550781 238.753906 45.207031 238.59375 44.816406 C 238.433594 44.425781 238.351562 44.023438 238.351562 43.601562 C 238.351562 43.179688 238.433594 42.773438 238.59375 42.382812 C 238.753906 41.996094 238.984375 41.652344 239.28125 41.355469 C 239.582031 41.054688 239.925781 40.828125 240.3125 40.664062 C 240.703125 40.503906 241.109375 40.421875 241.53125 40.421875 C 241.949219 40.421875 242.355469 40.503906 242.746094 40.664062 C 243.136719 40.828125 243.480469 41.054688 243.777344 41.355469 C 244.074219 41.652344 244.304688 41.996094 244.464844 42.382812 C 244.625 42.773438 244.707031 43.179688 244.707031 43.601562 Z M 244.707031 43.601562 "/></g><path style=" stroke:none;fill-rule:nonzero;fill:#1a1a1a;fill-opacity:1;" d="M 240.851562 43.601562 L 242.210938 43.601562 L 242.210938 290.472656 L 240.851562 290.472656 Z M 240.851562 43.601562 "/><path style=" stroke:none;fill-rule:nonzero;fill:#1a1a1a;fill-opacity:1;" d="M 90.363281 142.207031 C 90.363281 142.46875 90.335938 142.730469 90.285156 142.988281 C 90.234375 143.242188 90.160156 143.492188 90.058594 143.734375 C 89.957031 143.976562 89.835938 144.207031 89.691406 144.425781 C 89.542969 144.644531 89.378906 144.84375 89.191406 145.03125 C 89.007812 145.214844 88.804688 145.382812 88.589844 145.527344 C 88.371094 145.671875 88.140625 145.796875 87.898438 145.898438 C 87.65625 145.996094 87.40625 146.074219 87.148438 146.125 C 86.890625 146.175781 86.632812 146.199219 86.371094 146.199219 C 86.105469 146.199219 85.847656 146.175781 85.589844 146.125 C 85.332031 146.074219 85.082031 145.996094 84.839844 145.898438 C 84.597656 145.796875 84.367188 145.671875 84.152344 145.527344 C 83.933594 145.382812 83.730469 145.214844 83.546875 145.03125 C 83.359375 144.84375 83.195312 144.644531 83.046875 144.425781 C 82.902344 144.207031 82.78125 143.976562 82.679688 143.734375 C 82.578125 143.492188 82.503906 143.242188 82.453125 142.988281 C 82.402344 142.730469 82.375 142.46875 82.375 142.207031 C 82.375 141.945312 82.402344 141.683594 82.453125 141.429688 C 82.503906 141.171875 82.578125 140.921875 82.679688 140.679688 C 82.78125 140.4375 82.902344 140.207031 83.046875 139.988281 C 83.195312 139.769531 83.359375 139.570312 83.546875 139.382812 C 83.730469 139.199219 83.933594 139.03125 84.152344 138.886719 C 84.367188 138.742188 84.597656 138.617188 84.839844 138.519531 C 85.082031 138.417969 85.332031 138.34375 85.589844 138.289062 C 85.847656 138.238281 86.105469 138.214844 86.371094 138.214844 C 86.632812 138.214844 86.890625 138.238281 87.148438 138.289062 C 87.40625 138.34375 87.65625 138.417969 87.898438 138.519531 C 88.140625 138.617188 88.371094 138.742188 88.589844 138.886719 C 88.804688 139.03125 89.007812 139.199219 89.191406 139.382812 C 89.378906 139.570312 89.542969 139.769531 89.691406 139.988281 C 89.835938 140.207031 89.957031 140.4375 90.058594 140.679688 C 90.160156 140.921875 90.234375 141.171875 90.285156 141.429688 C 90.335938 141.683594 90.363281 141.945312 90.363281 142.207031 Z M 90.363281 142.207031 "/><path style=" stroke:none;fill-rule:nonzero;fill:#1a1a1a;fill-opacity:1;" d="M 85.691406 142.207031 L 87.050781 142.207031 L 87.050781 235.332031 L 85.691406 235.332031 Z M 85.691406 142.207031 "/><path style=" stroke:none;fill-rule:nonzero;fill:#1a1a1a;fill-opacity:1;" d="M 159.847656 64.664062 L 161.207031 64.664062 L 161.207031 180.074219 L 159.847656 180.074219 Z M 159.847656 64.664062 "/><path style=" stroke:none;fill-rule:nonzero;fill:#1a1a1a;fill-opacity:1;" d="M 164.519531 64.664062 C 164.519531 64.925781 164.496094 65.183594 164.445312 65.441406 C 164.394531 65.699219 164.316406 65.949219 164.21875 66.191406 C 164.117188 66.433594 163.992188 66.664062 163.847656 66.882812 C 163.703125 67.101562 163.535156 67.300781 163.351562 67.488281 C 163.164062 67.671875 162.964844 67.839844 162.746094 67.984375 C 162.527344 68.128906 162.296875 68.253906 162.054688 68.351562 C 161.8125 68.453125 161.5625 68.527344 161.304688 68.578125 C 161.050781 68.632812 160.789062 68.65625 160.527344 68.65625 C 160.265625 68.65625 160.003906 68.632812 159.75 68.578125 C 159.492188 68.527344 159.242188 68.453125 159 68.351562 C 158.757812 68.253906 158.527344 68.128906 158.308594 67.984375 C 158.089844 67.839844 157.890625 67.671875 157.703125 67.488281 C 157.519531 67.300781 157.351562 67.101562 157.207031 66.882812 C 157.0625 66.664062 156.9375 66.433594 156.835938 66.191406 C 156.738281 65.949219 156.660156 65.699219 156.609375 65.441406 C 156.558594 65.183594 156.535156 64.925781 156.535156 64.664062 C 156.535156 64.402344 156.558594 64.140625 156.609375 63.882812 C 156.660156 63.628906 156.738281 63.378906 156.835938 63.136719 C 156.9375 62.894531 157.0625 62.664062 157.207031 62.445312 C 157.351562 62.226562 157.519531 62.023438 157.703125 61.839844 C 157.890625 61.65625 158.089844 61.488281 158.308594 61.34375 C 158.527344 61.199219 158.757812 61.074219 159 60.972656 C 159.242188 60.875 159.492188 60.796875 159.75 60.746094 C 160.003906 60.695312 160.265625 60.671875 160.527344 60.671875 C 160.789062 60.671875 161.050781 60.695312 161.304688 60.746094 C 161.5625 60.796875 161.8125 60.875 162.054688 60.972656 C 162.296875 61.074219 162.527344 61.199219 162.746094 61.34375 C 162.964844 61.488281 163.164062 61.65625 163.351562 61.839844 C 163.535156 62.023438 163.703125 62.226562 163.847656 62.445312 C 163.992188 62.664062 164.117188 62.894531 164.21875 63.136719 C 164.316406 63.378906 164.394531 63.628906 164.445312 63.882812 C 164.496094 64.140625 164.519531 64.402344 164.519531 64.664062 Z M 164.519531 64.664062 "/><path style=" stroke:none;fill-rule:nonzero;fill:#1a1a1a;fill-opacity:1;" d="M 320.046875 80.84375 L 321.40625 80.84375 L 321.40625 173.875 L 320.046875 173.875 Z M 320.046875 80.84375 "/><path style=" stroke:none;fill-rule:nonzero;fill:#1a1a1a;fill-opacity:1;" d="M 324.71875 80.84375 C 324.71875 81.109375 324.695312 81.367188 324.644531 81.625 C 324.589844 81.882812 324.515625 82.132812 324.414062 82.375 C 324.316406 82.617188 324.191406 82.847656 324.046875 83.0625 C 323.902344 83.28125 323.734375 83.484375 323.550781 83.667969 C 323.363281 83.855469 323.164062 84.019531 322.945312 84.164062 C 322.726562 84.3125 322.496094 84.433594 322.253906 84.535156 C 322.011719 84.636719 321.761719 84.710938 321.503906 84.761719 C 321.246094 84.8125 320.988281 84.839844 320.726562 84.839844 C 320.464844 84.839844 320.203125 84.8125 319.945312 84.761719 C 319.6875 84.710938 319.441406 84.636719 319.195312 84.535156 C 318.953125 84.433594 318.726562 84.3125 318.507812 84.164062 C 318.289062 84.019531 318.085938 83.855469 317.902344 83.667969 C 317.714844 83.484375 317.550781 83.28125 317.40625 83.0625 C 317.257812 82.847656 317.136719 82.617188 317.035156 82.375 C 316.933594 82.132812 316.859375 81.882812 316.808594 81.625 C 316.757812 81.367188 316.730469 81.109375 316.730469 80.84375 C 316.730469 80.582031 316.757812 80.324219 316.808594 80.066406 C 316.859375 79.808594 316.933594 79.558594 317.035156 79.316406 C 317.136719 79.074219 317.257812 78.84375 317.40625 78.625 C 317.550781 78.410156 317.714844 78.207031 317.902344 78.023438 C 318.085938 77.835938 318.289062 77.671875 318.507812 77.523438 C 318.726562 77.378906 318.953125 77.257812 319.195312 77.15625 C 319.4375 77.054688 319.6875 76.980469 319.945312 76.929688 C 320.203125 76.878906 320.464844 76.851562 320.726562 76.851562 C 320.988281 76.851562 321.246094 76.878906 321.503906 76.929688 C 321.761719 76.980469 322.011719 77.054688 322.253906 77.15625 C 322.496094 77.257812 322.726562 77.378906 322.945312 77.523438 C 323.164062 77.671875 323.363281 77.835938 323.550781 78.023438 C 323.734375 78.207031 323.902344 78.410156 324.046875 78.625 C 324.191406 78.84375 324.316406 79.074219 324.414062 79.316406 C 324.515625 79.558594 324.589844 79.808594 324.644531 80.066406 C 324.695312 80.324219 324.71875 80.582031 324.71875 80.84375 Z M 324.71875 80.84375 "/></g></svg>