<svg width="243" height="163" viewBox="0 0 243 163" fill="none" xmlns="http://www.w3.org/2000/svg">
<path d="M37.5662 97.7135H24.738C21.7953 97.7135 21.7953 102.281 24.738 102.281H37.5662C40.5089 102.281 40.5089 97.7135 37.5662 97.7135Z" fill="#8C52FF"/>
<path d="M50.3369 55.8646L38.8734 49.4948C36.3005 48.0677 33.9984 52.0104 36.5713 53.4375L48.0348 59.8073C50.6078 61.2396 52.9098 57.2969 50.3369 55.8646Z" fill="#8C52FF"/>
<path d="M81.4776 25.8281L75.238 14.7761C73.7901 12.2083 69.8474 14.5104 71.2953 17.0781L77.5349 28.1302C78.9828 30.6927 82.9255 28.3958 81.4776 25.8281Z" fill="#8C52FF"/>
<mask id="mask0_111_3" style="mask-type:luminance" maskUnits="userSpaceOnUse" x="119" y="0" width="6" height="19">
<path d="M119.134 0H124.467V18.2552H119.134V0Z" fill="white"/>
</mask>
<g mask="url(#mask0_111_3)">
<path d="M124.076 15.7969V2.94272C124.076 -0.00519802 119.514 -0.00519802 119.514 2.94272V15.7969C119.514 18.7396 124.076 18.7396 124.076 15.7969Z" fill="#8C52FF"/>
</g>
<path d="M166.134 28.4948L172.295 17.0781C173.691 14.4896 169.748 12.1823 168.353 14.776L162.191 26.1927C160.795 28.7812 164.733 31.0833 166.134 28.4948Z" fill="#8C52FF"/>
<path d="M195.717 60.1719L207.014 53.4375C209.54 51.9323 207.243 47.9844 204.712 49.4948L193.41 56.2292C190.884 57.7344 193.181 61.6823 195.717 60.1719Z" fill="#8C52FF"/>
<path d="M205.795 102.281H218.853C221.795 102.281 221.795 97.7135 218.853 97.7135H205.795C202.853 97.7135 202.853 102.281 205.795 102.281Z" fill="#8C52FF"/>
<path d="M122.321 94.1719H121.999C118.889 94.1719 116.295 96.7656 116.295 99.8802C116.295 102.99 118.889 105.583 121.999 105.583H122.321C125.431 105.583 128.03 102.99 128.03 99.8802C128.03 96.7656 125.431 94.1719 122.321 94.1719Z" fill="#8C52FF"/>
<path d="M123.103 100.219V48.9427C123.103 47.4688 120.821 47.4688 120.821 48.9427V100.219C120.821 101.688 123.103 101.688 123.103 100.219Z" fill="#8C52FF"/>
<path d="M122.582 99.3021L88.7693 40.7969L86.0661 36.1198C85.3318 34.8437 83.3578 35.9948 84.0974 37.2708L117.905 95.776L120.608 100.453C121.347 101.729 123.316 100.578 122.582 99.3021Z" fill="#8C52FF"/>
<path d="M27.25 156.013C27.5938 157.18 27.9063 158.138 28.1875 158.888C28.4792 159.638 28.8802 160.513 29.3958 161.513H22.9792C22.9479 160.346 22.8385 159.419 22.6458 158.721C22.4479 158.013 22.1979 157.112 21.8958 156.013L19.2292 146.555H5.45833L2.6875 156.263C2.40625 157.221 2.16667 158.065 1.95833 158.784C1.75 159.508 1.59375 160.419 1.5 161.513H0C0.583333 160.388 0.963541 159.487 1.14583 158.805C1.33854 158.112 1.57292 157.284 1.85417 156.325L11.2708 123.18C11.3958 122.627 11.4479 122.159 11.4375 121.784C11.4219 121.409 11.3333 120.945 11.1667 120.388H17.2292L27.25 156.013ZM5.66667 145.742H19.0208L12.3333 122.138L5.66667 145.742Z" fill="#004AAD"/>
<path d="M35.5801 161.513C35.6738 160.07 35.7572 158.825 35.8301 157.784C35.8978 156.742 35.9395 155.732 35.9551 154.742C35.9655 153.742 35.9759 152.627 35.9759 151.388V130.513C35.9759 129.252 35.9655 128.133 35.9551 127.159C35.9395 126.19 35.8978 125.18 35.8301 124.138C35.7572 123.086 35.6738 121.836 35.5801 120.388H41.2259L57.3092 155.7L72.6217 120.388H77.9134C77.8145 121.836 77.7311 123.086 77.6634 124.138C77.5905 125.18 77.5488 126.19 77.5384 127.159C77.5228 128.133 77.5176 129.252 77.5176 130.513V151.388C77.5176 152.627 77.5228 153.742 77.5384 154.742C77.5488 155.732 77.5905 156.742 77.6634 157.784C77.7311 158.825 77.8145 160.07 77.9134 161.513H72.0592C72.1686 160.07 72.2467 158.825 72.2884 157.784C72.3405 156.742 72.377 155.732 72.3926 154.742C72.4186 153.742 72.4342 152.627 72.4342 151.388V122.867L55.5176 162.534H54.5801L36.8092 123.013V151.388C36.8092 152.627 36.8145 153.742 36.8301 154.742C36.8405 155.732 36.8822 156.742 36.9551 157.784C37.0228 158.825 37.1113 160.07 37.2259 161.513H35.5801Z" fill="#004AAD"/>
<path d="M85.1265 120.388H110.397L108.085 123.284C106.653 122.7 105.173 122.263 103.647 121.971C102.116 121.68 100.72 121.487 99.4598 121.388C98.1942 121.278 97.1681 121.221 96.3765 121.221H90.6681V141.409H93.5431C94.9181 141.409 96.3765 141.388 97.9181 141.346C99.4598 141.294 101.429 141.148 103.835 140.909V142.763C101.429 142.487 99.4598 142.336 97.9181 142.305C96.3765 142.263 94.9181 142.242 93.5431 142.242H90.6681V151.388C90.6681 152.627 90.6733 153.742 90.689 154.742C90.715 155.732 90.7567 156.742 90.814 157.784C90.8817 158.825 90.9858 160.07 91.1265 161.513H85.1265C85.2619 160.07 85.3608 158.825 85.4181 157.784C85.4858 156.742 85.5275 155.732 85.5431 154.742C85.5692 153.742 85.5848 152.627 85.5848 151.388V130.513C85.5848 129.252 85.5692 128.133 85.5431 127.159C85.5275 126.19 85.4858 125.18 85.4181 124.138C85.3608 123.086 85.2619 121.836 85.1265 120.388Z" fill="#004AAD"/>
<path d="M115.657 120.388H121.512C121.397 121.836 121.308 123.086 121.241 124.138C121.183 125.18 121.142 126.19 121.116 127.159C121.1 128.133 121.095 129.252 121.095 130.513V160.7H125.407C127.126 160.7 128.704 160.659 130.137 160.575C131.579 160.482 133.058 160.284 134.574 159.992C136.1 159.7 137.829 159.284 139.762 158.742L138.262 161.513H115.553C115.689 160.07 115.788 158.825 115.845 157.784C115.913 156.742 115.959 155.732 115.991 154.742C116.032 153.742 116.053 152.627 116.053 151.388V130.513C116.053 129.252 116.043 128.133 116.032 127.159C116.017 126.19 115.975 125.18 115.907 124.138C115.834 123.086 115.751 121.836 115.657 120.388Z" fill="#004AAD"/>
<path d="M167.873 162.534C164.581 162.534 161.54 162.002 158.748 160.95C155.956 159.883 153.519 158.388 151.435 156.471C149.363 154.555 147.753 152.278 146.602 149.638C145.462 147.002 144.894 144.107 144.894 140.95C144.894 137.799 145.462 134.903 146.602 132.263C147.753 129.627 149.363 127.346 151.435 125.43C153.519 123.513 155.956 122.028 158.748 120.971C161.54 119.903 164.581 119.367 167.873 119.367C171.165 119.367 174.206 119.903 176.998 120.971C179.79 122.028 182.227 123.513 184.31 125.43C186.404 127.346 188.024 129.627 189.165 132.263C190.316 134.903 190.894 137.799 190.894 140.95C190.894 144.107 190.316 147.002 189.165 149.638C188.024 152.278 186.404 154.555 184.31 156.471C182.227 158.388 179.79 159.883 176.998 160.95C174.206 162.002 171.165 162.534 167.873 162.534ZM167.873 161.721C170.607 161.721 173.045 161.159 175.185 160.034C177.337 158.898 179.17 157.357 180.685 155.409C182.212 153.45 183.373 151.232 184.165 148.742C184.956 146.258 185.352 143.659 185.352 140.95C185.352 138.242 184.956 135.653 184.165 133.18C183.373 130.695 182.212 128.471 180.685 126.513C179.17 124.555 177.337 123.013 175.185 121.888C173.045 120.763 170.607 120.2 167.873 120.2C165.165 120.2 162.727 120.763 160.56 121.888C158.404 123.013 156.571 124.555 155.06 126.513C153.56 128.471 152.415 130.695 151.623 133.18C150.831 135.653 150.435 138.242 150.435 140.95C150.435 143.659 150.831 146.258 151.623 148.742C152.415 151.232 153.56 153.45 155.06 155.409C156.571 157.357 158.404 158.898 160.56 160.034C162.727 161.159 165.165 161.721 167.873 161.721Z" fill="#004AAD"/>
<path d="M240.791 125.596L231.436 158.742C231.311 159.284 231.249 159.737 231.249 160.096C231.249 160.461 231.332 160.93 231.499 161.513H225.436L219.666 141.117L214.686 158.742C214.546 159.284 214.483 159.737 214.499 160.096C214.525 160.461 214.624 160.93 214.791 161.513H208.728L198.645 125.888C198.337 124.695 198.041 123.732 197.749 122.992C197.457 122.258 197.051 121.388 196.541 120.388H202.978C203.046 121.555 203.166 122.492 203.332 123.2C203.499 123.898 203.738 124.794 204.061 125.888L213.603 159.763L219.311 139.721L215.416 125.888C215.067 124.695 214.749 123.732 214.457 122.992C214.166 122.258 213.759 121.388 213.249 120.388H219.666C219.733 121.555 219.853 122.492 220.02 123.2C220.197 123.898 220.442 124.794 220.749 125.888L221.999 130.221L223.27 125.638C223.546 124.638 223.791 123.794 223.999 123.096C224.207 122.388 224.337 121.487 224.395 120.388H225.936C225.395 121.528 225.02 122.44 224.811 123.117C224.603 123.799 224.363 124.627 224.103 125.596L222.395 131.659L230.311 159.763L239.978 125.638C240.254 124.638 240.488 123.794 240.686 123.096C240.895 122.388 241.051 121.487 241.166 120.388H242.645C242.103 121.528 241.728 122.44 241.52 123.117C241.311 123.799 241.067 124.627 240.791 125.596Z" fill="#004AAD"/>
</svg>
